<svg width="21" height="21" viewBox="0 0 21 21" fill="none" xmlns="http://www.w3.org/2000/svg">
<path d="M19.2682 9.21937V17.0741C19.2682 18.6936 17.9644 19.9974 16.3449 19.9974H3.92318C2.3037 19.9974 0.999924 18.6936 0.999924 17.0741V4.65286C0.999924 3.03338 2.3037 1.72961 3.92318 1.72961H11.7957" stroke="black" stroke-width="0.999999" stroke-linecap="round" stroke-linejoin="round"/>
<path d="M4.41121 13.8413L6.41528 11.7537C7.33508 10.8339 8.50353 10.9303 9.17926 11.7433C9.88998 12.5155 10.9933 12.7224 12.0366 11.7208L13.9364 9.62408" stroke="black" stroke-width="0.999999" stroke-linecap="round" stroke-linejoin="round"/>
<path d="M19.9978 3.49618C19.9978 4.15819 19.7348 4.79309 19.2667 5.26121C18.7986 5.72932 18.1636 5.9923 17.5016 5.9923C16.8396 5.9923 16.2047 5.72932 15.7366 5.26121C15.2685 4.79309 15.0055 4.15819 15.0055 3.49618C15.0055 2.83417 15.2685 2.19927 15.7366 1.73116C16.2047 1.26304 16.8396 1.00006 17.5016 1.00006C18.1636 1.00006 18.7986 1.26304 19.2667 1.73116C19.7348 2.19927 19.9978 2.83417 19.9978 3.49618Z" stroke="black" stroke-width="0.999999" stroke-linecap="round" stroke-linejoin="round"/>
</svg>
