<svg width="30" height="30" viewBox="0 0 30 30" fill="none" xmlns="http://www.w3.org/2000/svg">
<path d="M5.25 21V21.232L5.38102 21.4235C7.4601 24.4622 10.984 26.55 15 26.55C19.016 26.55 22.5399 24.4622 24.619 21.4235L24.75 21.232V21C24.75 19.9774 24.2338 19.1279 23.5311 18.463C22.8321 17.8016 21.8989 17.2716 20.9154 16.8585C18.9515 16.0336 16.6029 15.6 15 15.6C13.3971 15.6 11.0485 16.0336 9.08458 16.8585C8.10113 17.2716 7.16793 17.8016 6.46892 18.463C5.76621 19.1279 5.25 19.9774 5.25 21ZM0.75 15C0.75 7.16421 7.16421 0.75 15 0.75C22.8358 0.75 29.25 7.16421 29.25 15C29.25 22.8358 22.8358 29.25 15 29.25C7.16421 29.25 0.75 22.8358 0.75 15ZM20.25 9C20.25 6.03579 17.9642 3.75 15 3.75C12.0358 3.75 9.75 6.03579 9.75 9C9.75 11.9642 12.0358 14.25 15 14.25C17.9642 14.25 20.25 11.9642 20.25 9Z" stroke="black" stroke-width="1.5"/>
</svg>
