<svg width="64" height="62" viewBox="0 0 64 62" fill="none" xmlns="http://www.w3.org/2000/svg">
<path d="M21.8939 20.08C21.8939 20.08 9.78482 21.4212 1.70697 22.3179C0.978893 22.406 0.335118 22.8927 0.0937023 23.6323C-0.147713 24.3718 0.0937018 25.1421 0.630181 25.6287C6.63109 31.1047 15.6478 39.3051 15.6478 39.3051C15.6401 39.3051 13.1723 51.2341 11.5322 59.1932C11.3943 59.9136 11.6548 60.6762 12.2833 61.1322C12.9079 61.5882 13.7126 61.5959 14.3449 61.2395C21.4111 57.2235 31.9951 51.1843 31.9951 51.1843C31.9951 51.1843 42.5829 57.2235 49.6376 61.2433C50.2814 61.5959 51.0861 61.5882 51.7107 61.1322C52.3391 60.6762 52.5997 59.9136 52.4579 59.197C50.8178 51.2341 48.3539 39.3051 48.3539 39.3051C48.3539 39.3051 57.3706 31.1047 63.3715 25.6402C63.9079 25.1382 64.1455 24.368 63.9079 23.6323C63.6704 22.8965 63.0266 22.4099 62.2985 22.3256C54.2206 21.4212 42.1077 20.08 42.1077 20.08C42.1077 20.08 37.0878 8.97488 33.7425 1.57146C33.4282 0.908527 32.7691 0.444855 31.9951 0.444855C31.221 0.444855 30.5581 0.912359 30.2592 1.57146C26.91 8.97488 21.8939 20.08 21.8939 20.08Z" fill="#FF7100"/>
</svg>
