<svg width="23" height="18" viewBox="0 0 23 18" fill="none" xmlns="http://www.w3.org/2000/svg">
<path d="M0 4.5C0 3.2625 1.035 2.25 2.3 2.25H5.75L8.05 0H14.95L17.25 2.25H20.7C21.31 2.25 21.895 2.48705 22.3263 2.90901C22.7577 3.33097 23 3.90326 23 4.5V15.75C23 16.3467 22.7577 16.919 22.3263 17.341C21.895 17.7629 21.31 18 20.7 18H2.3C1.69 18 1.10499 17.7629 0.673654 17.341C0.242321 16.919 0 16.3467 0 15.75V4.5ZM11.5 15.75C13.025 15.75 14.4875 15.1574 15.5659 14.1025C16.6442 13.0476 17.25 11.6168 17.25 10.125C17.25 8.63316 16.6442 7.20242 15.5659 6.14752C14.4875 5.09263 13.025 4.5 11.5 4.5C9.975 4.5 8.51247 5.09263 7.43414 6.14752C6.3558 7.20242 5.75 8.63316 5.75 10.125C5.75 11.6168 6.3558 13.0476 7.43414 14.1025C8.51247 15.1574 9.975 15.75 11.5 15.75ZM11.5 13.5C11.0469 13.5 10.5983 13.4127 10.1797 13.2431C9.76117 13.0735 9.38084 12.8249 9.06048 12.5115C8.74012 12.1981 8.48599 11.826 8.31262 11.4166C8.13924 11.0071 8.05 10.5682 8.05 10.125C8.05 9.68179 8.13924 9.24292 8.31262 8.83344C8.48599 8.42397 8.74012 8.05191 9.06048 7.73851C9.38084 7.42512 9.76117 7.17652 10.1797 7.00691C10.5983 6.8373 11.0469 6.75 11.5 6.75C12.415 6.75 13.2925 7.10558 13.9395 7.73851C14.5865 8.37145 14.95 9.22989 14.95 10.125C14.95 11.0201 14.5865 11.8786 13.9395 12.5115C13.2925 13.1444 12.415 13.5 11.5 13.5Z" fill="black"/>
</svg>
