<svg width="21" height="20" viewBox="0 0 21 20" fill="none" xmlns="http://www.w3.org/2000/svg">
<path d="M20.7338 2.55818C20.5254 2.31927 20.2254 2.18181 19.9091 2.18181H4.83381L4.62108 0.911998C4.53381 0.386181 4.0789 0 3.54545 0H1.09091C0.487636 0 0 0.487636 0 1.09091C0 1.69418 0.487636 2.18181 1.09091 2.18181H2.62145L4.65054 14.3607C4.65927 14.4098 4.68436 14.4502 4.69963 14.496C4.71708 14.5538 4.73127 14.6083 4.75854 14.6607C4.79345 14.7327 4.84036 14.7938 4.88945 14.856C4.92326 14.8985 4.95381 14.9411 4.99308 14.9782C5.05636 15.0371 5.12945 15.0785 5.20363 15.12C5.24508 15.1429 5.28108 15.1734 5.32581 15.1909C5.45235 15.2422 5.58545 15.2727 5.72617 15.2727H17.7272C18.3305 15.2727 18.8182 14.7851 18.8182 14.1818C18.8182 13.5785 18.3305 13.0909 17.7272 13.0909H6.65126L6.47017 12H18.8182C19.3614 12 19.8218 11.6007 19.8981 11.064L20.9891 3.42763C21.0338 3.11345 20.94 2.796 20.7338 2.55818ZM18.6512 4.36363L18.3403 6.54544H14.4545V4.36363H18.6512ZM13.3636 4.36363V6.54544H10.0909V4.36363H13.3636ZM13.3636 7.63635V9.81817H10.0909V7.63635H13.3636ZM8.99999 4.36363V6.54544H5.72726C5.66945 6.54544 5.61708 6.56181 5.56581 6.57817L5.19708 4.36363H8.99999ZM5.74254 7.63635H8.99999V9.81817H6.10581L5.74254 7.63635ZM14.4545 9.81817V7.63635H18.1832L17.8723 9.81817H14.4545Z" fill="black"/>
<path d="M7.36366 19.6364C8.26739 19.6364 9.00002 18.9037 9.00002 18C9.00002 17.0963 8.26739 16.3636 7.36366 16.3636C6.45992 16.3636 5.72729 17.0963 5.72729 18C5.72729 18.9037 6.45992 19.6364 7.36366 19.6364Z" fill="black"/>
<path d="M17.1818 19.6364C18.0855 19.6364 18.8181 18.9037 18.8181 18C18.8181 17.0963 18.0855 16.3636 17.1818 16.3636C16.278 16.3636 15.5454 17.0963 15.5454 18C15.5454 18.9037 16.278 19.6364 17.1818 19.6364Z" fill="black"/>
</svg>
