<svg width="28" height="26" viewBox="0 0 28 26" fill="none" xmlns="http://www.w3.org/2000/svg">
<path d="M23.3333 0.166687H4.66667C2.1 0.166687 0 2.26669 0 4.83335V16.5C0 19.0667 2.1 21.1667 4.66667 21.1667V24.6667C4.66667 25.7167 5.95 26.1834 6.65 25.4834L10.9667 21.1667H23.3333C25.9 21.1667 28 19.0667 28 16.5V4.83335C28 2.26669 25.9 0.166687 23.3333 0.166687ZM16.3333 14.1667H9.33333C8.63333 14.1667 8.16667 13.7 8.16667 13C8.16667 12.3 8.63333 11.8334 9.33333 11.8334H16.3333C17.0333 11.8334 17.5 12.3 17.5 13C17.5 13.7 17.0333 14.1667 16.3333 14.1667ZM18.6667 9.50002H9.33333C8.63333 9.50002 8.16667 9.03335 8.16667 8.33335C8.16667 7.63335 8.63333 7.16669 9.33333 7.16669H18.6667C19.3667 7.16669 19.8333 7.63335 19.8333 8.33335C19.8333 9.03335 19.3667 9.50002 18.6667 9.50002Z" fill="white"/>
</svg>
