<svg width="12" height="12" viewBox="0 0 12 12" fill="none" xmlns="http://www.w3.org/2000/svg">
<path d="M6 10.77C5.85168 10.7703 5.70475 10.7414 5.56767 10.6847C5.43059 10.6281 5.30606 10.5449 5.20125 10.44L1.33875 6.57749C1.03363 6.26905 0.792934 5.90297 0.630693 5.50059C0.468452 5.0982 0.387907 4.66756 0.39375 4.23373C0.39669 3.83617 0.478035 3.4431 0.633125 3.07703C0.788215 2.71095 1.014 2.37907 1.29756 2.1004C1.58111 1.82172 1.91686 1.60172 2.28556 1.45301C2.65427 1.30429 3.0487 1.22978 3.44625 1.23373C3.85092 1.22966 4.25228 1.30689 4.62654 1.46084C5.0008 1.6148 5.34033 1.84234 5.625 2.12998L6 2.50498L6.3075 2.19748C6.83847 1.65245 7.54897 1.3183 8.3074 1.25694C9.06584 1.19557 9.82082 1.41115 10.4325 1.86373C10.7807 2.13188 11.0678 2.47113 11.2746 2.85889C11.4814 3.24666 11.6033 3.67404 11.632 4.11258C11.6607 4.55112 11.5957 4.99074 11.4413 5.40219C11.2868 5.81363 11.0465 6.18744 10.7362 6.49873L6.79875 10.44C6.69394 10.5449 6.56941 10.6281 6.43233 10.6847C6.29525 10.7414 6.14832 10.7703 6 10.77ZM3.43125 1.97998C2.8352 1.97938 2.26229 2.21069 1.83375 2.62498C1.61527 2.83519 1.44153 3.08738 1.32296 3.36641C1.20439 3.64544 1.14343 3.94556 1.14375 4.24873C1.14046 4.58223 1.20341 4.91306 1.32893 5.22204C1.45446 5.53102 1.64007 5.81202 1.875 6.04873L5.7375 9.91124C5.77236 9.94638 5.81384 9.97428 5.85953 9.99332C5.90523 10.0124 5.95425 10.0222 6.00375 10.0222C6.05325 10.0222 6.10227 10.0124 6.14797 9.99332C6.19366 9.97428 6.23514 9.94638 6.27 9.91124L10.2112 5.96623C10.4426 5.73 10.6213 5.44749 10.7357 5.13726C10.8501 4.82703 10.8976 4.49611 10.875 4.16623C10.855 3.83298 10.7632 3.50798 10.6059 3.21349C10.4486 2.919 10.2296 2.66197 9.96375 2.45998C9.4973 2.11607 8.92173 1.95346 8.34427 2.00244C7.76681 2.05142 7.22686 2.30866 6.825 2.72623L6.26625 3.29999C6.23139 3.33513 6.18991 3.36303 6.14422 3.38207C6.09852 3.40111 6.0495 3.41091 6 3.41091C5.9505 3.41091 5.90148 3.40111 5.85578 3.38207C5.81009 3.36303 5.76861 3.33513 5.73375 3.29999L5.09625 2.66248C4.65716 2.22721 4.06452 1.98207 3.44625 1.97998H3.43125Z" fill="#101820"/>
</svg>
