<svg width="25" height="21" viewBox="0 0 25 21" fill="none" xmlns="http://www.w3.org/2000/svg">
<path d="M12.2109 20.77C11.8878 20.7708 11.5678 20.7077 11.2693 20.5843C10.9707 20.461 10.6995 20.2798 10.4712 20.0513L2.05883 11.6389C1.39428 10.9671 0.870056 10.1698 0.5167 9.2934C0.163344 8.41702 -0.012081 7.47909 0.00064606 6.53424C0.00704905 5.66836 0.184215 4.81226 0.521996 4.01496C0.859777 3.21767 1.35154 2.49485 1.96911 1.8879C2.58667 1.28095 3.31792 0.801803 4.12096 0.477904C4.92399 0.154004 5.78304 -0.00828422 6.64889 0.000333967C7.53025 -0.00854383 8.40441 0.15966 9.21953 0.494969C10.0347 0.830279 10.7741 1.32587 11.3941 1.95234L12.2109 2.76908L12.8806 2.09935C14.037 0.912277 15.5845 0.184519 17.2363 0.0508691C18.8882 -0.0827805 20.5325 0.386735 21.8647 1.37245C22.6231 1.95646 23.2483 2.69534 23.6988 3.53988C24.1492 4.38442 24.4146 5.31525 24.4772 6.27037C24.5398 7.22549 24.3982 8.18298 24.0618 9.07909C23.7254 9.9752 23.2019 10.7894 22.5263 11.4673L13.9505 20.0513C13.7223 20.2798 13.451 20.461 13.1525 20.5843C12.8539 20.7077 12.5339 20.7708 12.2109 20.77ZM6.61622 1.62564C5.31804 1.62432 4.07026 2.12812 3.13692 3.03043C2.66109 3.48825 2.28268 4.03751 2.02444 4.64523C1.76619 5.25295 1.63343 5.90659 1.63412 6.56691C1.62696 7.29324 1.76405 8.01378 2.03744 8.68673C2.31083 9.35969 2.71508 9.97169 3.22676 10.4872L11.6392 18.8997C11.7151 18.9762 11.8054 19.037 11.9049 19.0784C12.0045 19.1199 12.1112 19.1412 12.219 19.1412C12.3269 19.1412 12.4336 19.1199 12.5331 19.0784C12.6327 19.037 12.723 18.9762 12.7989 18.8997L21.3828 10.3076C21.8867 9.79305 22.276 9.17775 22.5252 8.50209C22.7743 7.82642 22.8777 7.10568 22.8285 6.38722C22.7849 5.6614 22.5849 4.95357 22.2424 4.31218C21.8998 3.67079 21.4228 3.11098 20.8438 2.67107C19.8279 1.92203 18.5743 1.56786 17.3166 1.67455C16.0589 1.78123 14.8829 2.34149 14.0077 3.25095L12.7908 4.50056C12.7148 4.57711 12.6245 4.63787 12.525 4.67934C12.4255 4.7208 12.3187 4.74215 12.2109 4.74215C12.1031 4.74215 11.9963 4.7208 11.8968 4.67934C11.7973 4.63787 11.7069 4.57711 11.631 4.50056L10.2425 3.11211C9.28623 2.1641 7.99546 1.63019 6.64889 1.62564H6.61622Z" fill="#101820"/>
</svg>
