<svg width="24" height="21" viewBox="0 0 24 21" fill="none" xmlns="http://www.w3.org/2000/svg">
<path d="M12 0C12 0 4.5768 6.23 0.4284 9.604C0.1848 9.81867 0 10.1313 0 10.5C0 11.1452 0.5364 11.6667 1.2 11.6667H3.6V19.8333C3.6 20.4785 4.1364 21 4.8 21H8.4C9.0636 21 9.6 20.4773 9.6 19.8333V15.1667H14.4V19.8333C14.4 20.4773 14.9364 21 15.6 21H19.2C19.8636 21 20.4 20.4785 20.4 19.8333V11.6667H22.8C23.4636 11.6667 24 11.1452 24 10.5C24 10.1313 23.8152 9.81867 23.5404 9.604C19.4208 6.23 12 0 12 0Z" fill="black"/>
</svg>
