<svg width="30" height="25" viewBox="0 0 30 25" fill="none" xmlns="http://www.w3.org/2000/svg">
<path d="M14.4999 24.8225C14.1168 24.8234 13.7372 24.7486 13.3831 24.6023C13.029 24.456 12.7073 24.2411 12.4365 23.97L2.45837 13.9919C1.67014 13.1951 1.04835 12.2494 0.629225 11.2099C0.210103 10.1704 0.00202795 9.0579 0.0171237 7.93719C0.0247185 6.91016 0.234859 5.89472 0.635508 4.94903C1.03616 4.00334 1.61944 3.14599 2.35195 2.42607C3.08447 1.70616 3.95181 1.13783 4.90431 0.75365C5.85681 0.369466 6.87574 0.176972 7.90275 0.187194C8.94814 0.176664 9.985 0.376174 10.9518 0.773892C11.9187 1.17161 12.7958 1.75944 13.5312 2.50251L14.4999 3.47126L15.2943 2.67688C16.666 1.26887 18.5014 0.40566 20.4607 0.247135C22.42 0.0886104 24.3704 0.645513 25.9506 1.81469C26.8501 2.5074 27.5917 3.3838 28.126 4.38552C28.6603 5.38725 28.975 6.49132 29.0493 7.62421C29.1235 8.7571 28.9555 9.8928 28.5565 10.9557C28.1575 12.0186 27.5367 12.9843 26.7352 13.7884L16.5634 23.97C16.2926 24.2411 15.9709 24.456 15.6168 24.6023C15.2627 24.7486 14.8831 24.8234 14.4999 24.8225ZM7.864 2.11501C6.32419 2.11344 4.84417 2.711 3.73712 3.78126C3.17273 4.32428 2.7239 4.97577 2.41759 5.6966C2.11127 6.41743 1.9538 7.19273 1.95462 7.97594C1.94613 8.83747 2.10874 9.6921 2.43301 10.4903C2.75728 11.2885 3.23677 12.0144 3.84369 12.6259L13.8218 22.6041C13.9119 22.6949 14.019 22.7669 14.1371 22.8161C14.2551 22.8653 14.3817 22.8906 14.5096 22.8906C14.6375 22.8906 14.7641 22.8653 14.8822 22.8161C15.0002 22.7669 15.1074 22.6949 15.1974 22.6041L25.379 12.4128C25.9766 11.8025 26.4384 11.0727 26.7339 10.2713C27.0294 9.46988 27.152 8.615 27.0937 7.76282C27.042 6.90191 26.8048 6.06233 26.3985 5.30156C25.9922 4.5408 25.4263 3.87679 24.7396 3.35501C23.5346 2.46656 22.0477 2.04647 20.556 2.17301C19.0642 2.29956 17.6693 2.96409 16.6312 4.04282L15.1877 5.52501C15.0977 5.61581 14.9905 5.68788 14.8725 5.73706C14.7544 5.78624 14.6278 5.81156 14.4999 5.81156C14.372 5.81156 14.2454 5.78624 14.1274 5.73706C14.0093 5.68788 13.9022 5.61581 13.8121 5.52501L12.1652 3.87813C11.0309 2.75368 9.49994 2.1204 7.90275 2.11501H7.864Z" fill="white"/>
</svg>
