<svg width="17" height="23" viewBox="0 0 17 23" fill="none" xmlns="http://www.w3.org/2000/svg">
<path d="M1.9375 21.4688C1.42 21.4688 1 21.0487 1 20.5312V10.2188C1 9.70125 1.42 9.28125 1.9375 9.28125H15.0625C15.58 9.28125 16 9.70125 16 10.2188V20.5312C16 21.0487 15.58 21.4688 15.0625 21.4688H1.9375Z" stroke="black" stroke-width="2" stroke-miterlimit="10" stroke-linecap="round"/>
<path d="M13.1875 9.28125C13.1875 8.79141 13.1875 6.48984 13.1875 6C13.1875 3.41109 11.0889 1.3125 8.5 1.3125C5.91109 1.3125 3.8125 3.41109 3.8125 6C3.8125 6.48984 3.8125 8.79141 3.8125 9.28125" stroke="black" stroke-width="2" stroke-miterlimit="10" stroke-linecap="round"/>
<path d="M9.90625 14.4375C9.90625 13.6608 9.27672 13.0312 8.5 13.0312C7.72328 13.0312 7.09375 13.6608 7.09375 14.4375C7.09375 14.8523 7.27703 15.2217 7.5625 15.4791V16.7812C7.5625 17.2987 7.9825 17.7188 8.5 17.7188C9.0175 17.7188 9.4375 17.2987 9.4375 16.7812V15.4791C9.72297 15.2217 9.90625 14.8523 9.90625 14.4375Z" fill="black"/>
</svg>
