<svg width="14" height="14" viewBox="0 0 14 14" fill="none" xmlns="http://www.w3.org/2000/svg">
<path d="M12.8333 11.6667H1.16667C0.52325 11.6667 0 11.1434 0 10.5V3.50001C0 2.85659 0.52325 2.33334 1.16667 2.33334H12.8333C13.4767 2.33334 14 2.85659 14 3.50001V10.5C14 11.1434 13.4767 11.6667 12.8333 11.6667ZM1.16667 2.91668C0.844958 2.91668 0.583333 3.1783 0.583333 3.50001V10.5C0.583333 10.8217 0.844958 11.0833 1.16667 11.0833H12.8333C13.155 11.0833 13.4167 10.8217 13.4167 10.5V3.50001C13.4167 3.1783 13.155 2.91668 12.8333 2.91668H1.16667Z" fill="black"/>
<path d="M7 8.51405L1.88329 5.20335C1.74796 5.11555 1.70916 4.9353 1.79666 4.79997C1.88416 4.66464 2.06471 4.62614 2.20004 4.71334L7 7.8193L11.8 4.71334C11.9353 4.62614 12.1158 4.66464 12.2033 4.79997C12.2908 4.9353 12.252 5.11555 12.1167 5.20335L7 8.51405Z" fill="black"/>
<path d="M1.75029 9.91669C1.65608 9.91669 1.56334 9.87119 1.50734 9.7869C1.41779 9.65273 1.45396 9.4719 1.58813 9.38236L4.21313 7.63236C4.34729 7.54282 4.52842 7.57898 4.61767 7.71315C4.70721 7.84732 4.67104 8.02815 4.53688 8.11769L1.91188 9.86769C1.862 9.90065 1.80571 9.91669 1.75029 9.91669Z" fill="black"/>
<path d="M12.2497 9.91669C12.1943 9.91669 12.138 9.90065 12.0881 9.86769L9.46313 8.11769C9.32896 8.02815 9.29279 7.84732 9.38233 7.71315C9.47158 7.57898 9.65242 7.54282 9.78688 7.63236L12.4119 9.38236C12.546 9.4719 12.5822 9.65273 12.4927 9.7869C12.4367 9.87119 12.3439 9.91669 12.2497 9.91669Z" fill="black"/>
</svg>
