<svg width="26" height="27" viewBox="0 0 26 27" fill="none" xmlns="http://www.w3.org/2000/svg">
<path d="M19.0538 12.5251H14.1495V7.62075C14.1495 6.98023 13.6075 6.461 12.9367 6.461C12.2658 6.461 11.7239 6.98023 11.7239 7.62075V12.5251H6.81955C6.17903 12.5251 5.65979 13.067 5.65979 13.7379C5.65979 14.4087 6.17903 14.9507 6.81955 14.9507H11.7239V19.855C11.7239 20.4955 12.2658 21.0148 12.9367 21.0148C13.6075 21.0148 14.1495 20.4955 14.1495 19.855V14.9507H19.0538C19.6943 14.9507 20.2135 14.4087 20.2135 13.7379C20.2135 13.067 19.6943 12.5251 19.0538 12.5251Z" fill="black"/>
<rect x="1" y="1.80115" width="23.2265" height="23.8733" rx="9" stroke="black" stroke-width="2"/>
</svg>
