<svg width="27" height="27" viewBox="0 0 27 27" fill="none" xmlns="http://www.w3.org/2000/svg">
<path d="M21.1945 25.3572H5.1125C2.951 25.3572 1.1965 23.6346 1.1965 21.5124V5.72279C1.1965 3.60059 2.951 1.87799 5.1125 1.87799H21.1945C23.356 1.87799 25.1105 3.60059 25.1105 5.72279V21.5124C25.1105 23.64 23.3615 25.3572 21.1945 25.3572Z" stroke="black" stroke-width="2" stroke-miterlimit="10"/>
<path d="M10.8765 18.861V11.7546C10.8765 11.3064 11.399 11.0526 11.762 11.3226L16.613 14.9406C16.9045 15.162 16.9045 15.594 16.6075 15.81L11.7565 19.2984C11.388 19.563 10.8765 19.3038 10.8765 18.861Z" fill="black"/>
<path d="M4.755 5.25839C5.24405 5.25839 5.6405 4.86915 5.6405 4.38899C5.6405 3.90884 5.24405 3.51959 4.755 3.51959C4.26595 3.51959 3.8695 3.90884 3.8695 4.38899C3.8695 4.86915 4.26595 5.25839 4.755 5.25839Z" fill="black"/>
<path d="M8.5995 5.25839C9.08855 5.25839 9.485 4.86915 9.485 4.38899C9.485 3.90884 9.08855 3.51959 8.5995 3.51959C8.11045 3.51959 7.714 3.90884 7.714 4.38899C7.714 4.86915 8.11045 5.25839 8.5995 5.25839Z" fill="black"/>
<path d="M1.1965 7.1106H25.1105" stroke="black" stroke-width="2" stroke-miterlimit="10"/>
</svg>
