<svg width="30" height="36" viewBox="0 0 30 36" fill="none" xmlns="http://www.w3.org/2000/svg">
<path d="M28.9869 11.8835C29.0695 14.4285 28.7691 17.3136 27.862 20.1175C25.8042 26.4763 21.8236 31.3596 15.906 34.7397C15.2928 35.0897 14.6745 35.0897 14.0395 34.722C7.67234 31.0358 3.5728 25.7028 1.73578 18.7295C1.20734 16.724 1.00112 14.676 1.0004 12.6078C0.999669 11.3154 1.00003 10.0229 1.00076 8.73002C1.00149 7.61924 1.54885 7.06773 2.6752 6.95708C6.8093 6.55265 10.3509 4.92395 13.283 2.05614C13.4689 1.87443 13.6445 1.68317 13.8297 1.50075C14.513 0.828343 15.5092 0.826929 16.1868 1.53398C17.3702 2.76885 18.6788 3.84923 20.1768 4.70688C22.4077 5.98453 24.8143 6.73789 27.3929 6.96521C28.4061 7.05465 28.9793 7.64257 28.9858 8.63421C28.992 9.58944 28.9869 10.5443 28.9869 11.8835ZM22.7583 14.046C22.6328 13.8544 22.5474 13.6585 22.4041 13.5185C22.0495 13.1724 21.6702 12.85 21.2974 12.5212C20.7806 12.0652 20.5023 12.0737 20.0146 12.5569C18.1602 14.3935 16.3064 16.2308 14.4512 18.0667C13.9442 18.5683 13.6715 18.5761 13.1368 18.1214C12.2534 17.3702 11.3707 16.6179 10.4811 15.8734C10.1378 15.586 9.82213 15.6019 9.49699 15.9091C9.12748 16.258 8.76597 16.6147 8.40264 16.9697C7.95384 17.4077 7.94584 17.6824 8.38227 18.1285C10.0494 19.8332 11.7188 21.5362 13.3885 23.2384C13.8049 23.663 14.1399 23.6644 14.5389 23.2278C17.1807 20.3381 19.82 17.4466 22.455 14.5512C22.5757 14.4186 22.643 14.2411 22.7583 14.046Z" stroke="black" stroke-width="2" stroke-miterlimit="10"/>
</svg>
