<svg width="28" height="35" viewBox="0 0 28 35" fill="none" xmlns="http://www.w3.org/2000/svg">
<path d="M27.9869 11.2037C28.0696 13.8233 27.7691 16.7939 26.8619 19.6796C24.8047 26.2258 20.8239 31.2521 14.9059 34.7319C14.2927 35.0923 13.6745 35.0923 13.0391 34.714C6.67181 30.9191 2.5724 25.4295 0.735821 18.2512C0.207491 16.1861 0.00119153 14.0786 0.000472714 11.9496C-0.000246103 10.6189 -0.000247595 9.28826 0.00119004 7.9576C0.00190886 6.81395 0.548929 6.24645 1.67532 6.1328C5.80923 5.71562 9.35084 4.03971 12.2829 1.08708C12.4684 0.900067 12.6445 0.702984 12.8299 0.515253C13.5135 -0.17669 14.5091 -0.178128 15.1869 0.549779C16.3701 1.82074 17.6791 2.93274 19.1771 3.81601C21.4083 5.13085 23.8142 5.90695 26.3933 6.14071C27.4068 6.23278 27.9797 6.83769 27.9862 7.85834C27.9919 8.84231 27.9869 9.82556 27.9869 11.2037ZM21.7583 13.4299C21.6326 13.2328 21.5477 13.0307 21.404 12.8868C21.0496 12.53 20.6701 12.1985 20.2977 11.8604C19.7809 11.3907 19.5027 11.4001 19.0146 11.8971C17.1601 13.7873 15.3062 15.679 13.451 17.5686C12.9442 18.085 12.6711 18.0929 12.137 17.6254C11.2536 16.8522 10.3708 16.0775 9.48167 15.3108C9.13807 15.0151 8.82251 15.0317 8.49761 15.3474C8.12814 15.7064 7.76657 16.0739 7.40285 16.4393C6.95431 16.8903 6.9464 17.173 7.38272 17.6326C9.04966 19.3876 10.7195 21.1405 12.3893 22.8927C12.8055 23.33 13.1404 23.3314 13.5394 22.8819C16.181 19.9069 18.8205 16.9306 21.455 13.9499C21.575 13.8139 21.6433 13.6313 21.7583 13.4299Z" fill="black"/>
</svg>
