<svg width="20" height="20" viewBox="0 0 20 20" fill="none" xmlns="http://www.w3.org/2000/svg">
<path d="M10 5.88232C9.18561 5.88232 8.3895 6.12382 7.71236 6.57627C7.03522 7.02873 6.50745 7.67181 6.19579 8.42422C5.88414 9.17662 5.8026 10.0045 5.96148 10.8033C6.12036 11.602 6.51252 12.3357 7.08839 12.9116C7.66425 13.4875 8.39794 13.8796 9.19669 14.0385C9.99543 14.1974 10.8234 14.1158 11.5758 13.8042C12.3282 13.4925 12.9712 12.9648 13.4237 12.2876C13.8762 11.6105 14.1176 10.8144 14.1176 9.99997C14.1176 8.9079 13.6838 7.86056 12.9116 7.08835C12.1394 6.31615 11.0921 5.88232 10 5.88232ZM10 13.1294C9.38106 13.1294 8.77602 12.9458 8.26139 12.602C7.74677 12.2581 7.34566 11.7694 7.1088 11.1975C6.87195 10.6257 6.80997 9.9965 6.93072 9.38945C7.05147 8.78241 7.34952 8.2248 7.78717 7.78714C8.22483 7.34949 8.78244 7.05144 9.38948 6.93069C9.99653 6.80994 10.6258 6.87191 11.1976 7.10877C11.7694 7.34563 12.2581 7.74673 12.602 8.26136C12.9459 8.77599 13.1294 9.38103 13.1294 9.99997C13.1294 10.8299 12.7997 11.6259 12.2128 12.2128C11.626 12.7997 10.83 13.1294 10 13.1294Z" fill="black"/>
<path d="M18.9062 7.5H17.5109C17.4784 7.49976 17.4468 7.4894 17.4205 7.47035C17.3942 7.45131 17.3745 7.42453 17.3641 7.39375C17.2733 7.13584 17.1689 6.88289 17.0516 6.63594C17.0369 6.6068 17.0317 6.5738 17.0368 6.54158C17.0418 6.50936 17.0568 6.47952 17.0797 6.45625L18.0656 5.46875C18.1672 5.36718 18.2478 5.24661 18.3027 5.1139C18.3577 4.98119 18.386 4.83896 18.386 4.69531C18.386 4.55167 18.3577 4.40943 18.3027 4.27673C18.2478 4.14402 18.1672 4.02344 18.0656 3.92188L16.0766 1.93438C15.975 1.8328 15.8544 1.75222 15.7217 1.69725C15.589 1.64228 15.4468 1.61398 15.3031 1.61398C15.1595 1.61398 15.0172 1.64228 14.8845 1.69725C14.7518 1.75222 14.6313 1.8328 14.5297 1.93438L13.5438 2.92031C13.5205 2.94317 13.4906 2.95817 13.4584 2.96321C13.4262 2.96826 13.3932 2.96309 13.3641 2.94844C13.1171 2.83102 12.8642 2.72671 12.6063 2.63594C12.5755 2.62554 12.5487 2.60581 12.5296 2.57948C12.5106 2.55316 12.5002 2.52155 12.5 2.48906V1.09375C12.5 0.803669 12.3848 0.52547 12.1796 0.320352C11.9745 0.115234 11.6963 0 11.4062 0H8.59375C8.30367 0 8.02547 0.115234 7.82035 0.320352C7.61523 0.52547 7.5 0.803669 7.5 1.09375V2.48906C7.49976 2.52155 7.4894 2.55316 7.47035 2.57948C7.45131 2.60581 7.42453 2.62554 7.39375 2.63594C7.13584 2.72674 6.88289 2.83106 6.63594 2.94844C6.6068 2.96309 6.5738 2.96826 6.54158 2.96321C6.50936 2.95817 6.47952 2.94317 6.45625 2.92031L5.46875 1.93438C5.36718 1.8328 5.24661 1.75222 5.1139 1.69725C4.98119 1.64228 4.83896 1.61398 4.69531 1.61398C4.55167 1.61398 4.40943 1.64228 4.27673 1.69725C4.14402 1.75222 4.02344 1.8328 3.92188 1.93438L1.93438 3.92344C1.8328 4.025 1.75222 4.14558 1.69725 4.27829C1.64228 4.411 1.61398 4.55323 1.61398 4.69687C1.61398 4.84052 1.64228 4.98275 1.69725 5.11546C1.75222 5.24817 1.8328 5.36875 1.93438 5.47031L2.92031 6.45625C2.94317 6.47952 2.95817 6.50936 2.96321 6.54158C2.96826 6.5738 2.96309 6.6068 2.94844 6.63594C2.83102 6.88287 2.72671 7.13583 2.63594 7.39375C2.62554 7.42453 2.60581 7.45131 2.57948 7.47035C2.55316 7.4894 2.52155 7.49976 2.48906 7.5H1.09375C0.803669 7.5 0.52547 7.61523 0.320352 7.82035C0.115234 8.02547 0 8.30367 0 8.59375L0 11.4062C0 11.6963 0.115234 11.9745 0.320352 12.1796C0.52547 12.3848 0.803669 12.5 1.09375 12.5H2.48906C2.52155 12.5002 2.55316 12.5106 2.57948 12.5296C2.60581 12.5487 2.62554 12.5755 2.63594 12.6063C2.72674 12.8642 2.83106 13.1171 2.94844 13.3641C2.96309 13.3932 2.96826 13.4262 2.96321 13.4584C2.95817 13.4906 2.94317 13.5205 2.92031 13.5438L1.93438 14.5312C1.8328 14.6328 1.75222 14.7534 1.69725 14.8861C1.64228 15.0188 1.61398 15.161 1.61398 15.3047C1.61398 15.4483 1.64228 15.5906 1.69725 15.7233C1.75222 15.856 1.8328 15.9766 1.93438 16.0781L3.92344 18.0672C4.025 18.1688 4.14558 18.2493 4.27829 18.3043C4.411 18.3593 4.55323 18.3876 4.69687 18.3876C4.84052 18.3876 4.98275 18.3593 5.11546 18.3043C5.24817 18.2493 5.36875 18.1688 5.47031 18.0672L6.45625 17.0812C6.47952 17.0584 6.50936 17.0434 6.54158 17.0383C6.5738 17.0333 6.6068 17.0385 6.63594 17.0531C6.88287 17.1705 7.13583 17.2749 7.39375 17.3656C7.42453 17.376 7.45131 17.3958 7.47035 17.4221C7.4894 17.4484 7.49976 17.48 7.5 17.5125V18.9062C7.5 19.1963 7.61523 19.4745 7.82035 19.6796C8.02547 19.8848 8.30367 20 8.59375 20H11.4062C11.6963 20 11.9745 19.8848 12.1796 19.6796C12.3848 19.4745 12.5 19.1963 12.5 18.9062V17.5109C12.5002 17.4784 12.5106 17.4468 12.5296 17.4205C12.5487 17.3942 12.5755 17.3745 12.6063 17.3641C12.8642 17.2733 13.1171 17.1689 13.3641 17.0516C13.3932 17.0369 13.4262 17.0317 13.4584 17.0368C13.4906 17.0418 13.5205 17.0568 13.5438 17.0797L14.5312 18.0656C14.6328 18.1672 14.7534 18.2478 14.8861 18.3027C15.0188 18.3577 15.161 18.386 15.3047 18.386C15.4483 18.386 15.5906 18.3577 15.7233 18.3027C15.856 18.2478 15.9766 18.1672 16.0781 18.0656L18.0672 16.0766C18.1688 15.975 18.2493 15.8544 18.3043 15.7217C18.3593 15.589 18.3876 15.4468 18.3876 15.3031C18.3876 15.1595 18.3593 15.0172 18.3043 14.8845C18.2493 14.7518 18.1688 14.6313 18.0672 14.5297L17.0812 13.5438C17.0584 13.5205 17.0434 13.4906 17.0383 13.4584C17.0333 13.4262 17.0385 13.3932 17.0531 13.3641C17.1705 13.1171 17.2749 12.8642 17.3656 12.6063C17.376 12.5755 17.3958 12.5487 17.4221 12.5296C17.4484 12.5106 17.48 12.5002 17.5125 12.5H18.9062C19.1963 12.5 19.4745 12.3848 19.6796 12.1796C19.8848 11.9745 20 11.6963 20 11.4062V8.59375C20 8.30367 19.8848 8.02547 19.6796 7.82035C19.4745 7.61523 19.1963 7.5 18.9062 7.5ZM19.0625 11.4062C19.0625 11.4477 19.046 11.4874 19.0167 11.5167C18.9874 11.546 18.9477 11.5625 18.9062 11.5625H17.5109C17.2843 11.5628 17.0634 11.6334 16.8786 11.7647C16.6939 11.896 16.5545 12.0814 16.4797 12.2953C16.3997 12.5219 16.3079 12.744 16.2047 12.9609C16.1057 13.1654 16.0728 13.3956 16.1106 13.6196C16.1484 13.8436 16.255 14.0503 16.4156 14.2109L17.4016 15.1969C17.4307 15.2262 17.447 15.2658 17.447 15.307C17.447 15.3483 17.4307 15.3879 17.4016 15.4172L15.4141 17.4031C15.3848 17.4322 15.3452 17.4486 15.3039 17.4486C15.2626 17.4486 15.223 17.4322 15.1937 17.4031L14.2078 16.4172C14.0472 16.2566 13.8405 16.15 13.6165 16.1122C13.3925 16.0744 13.1623 16.1072 12.9578 16.2063C12.7404 16.3096 12.5177 16.4014 12.2906 16.4813C12.077 16.5563 11.8919 16.6958 11.7609 16.8805C11.6299 17.0652 11.5595 17.2861 11.5594 17.5125V18.9062C11.5594 18.9477 11.5429 18.9874 11.5136 19.0167C11.4843 19.046 11.4446 19.0625 11.4031 19.0625H8.59375C8.55231 19.0625 8.51257 19.046 8.48326 19.0167C8.45396 18.9874 8.4375 18.9477 8.4375 18.9062V17.5109C8.43725 17.2843 8.3666 17.0634 8.23532 16.8786C8.10404 16.6939 7.91862 16.5545 7.70469 16.4797C7.47815 16.3997 7.25597 16.3079 7.03906 16.2047C6.8346 16.1057 6.60439 16.0728 6.38039 16.1106C6.15638 16.1484 5.94971 16.255 5.78906 16.4156L4.80312 17.4016C4.77385 17.4307 4.73425 17.447 4.69297 17.447C4.65169 17.447 4.61209 17.4307 4.58281 17.4016L2.59688 15.4141C2.56777 15.3848 2.55144 15.3452 2.55144 15.3039C2.55144 15.2626 2.56777 15.223 2.59688 15.1937L3.58281 14.2078C3.74343 14.0472 3.85004 13.8405 3.88784 13.6165C3.92564 13.3925 3.89275 13.1623 3.79375 12.9578C3.69043 12.7404 3.59864 12.5177 3.51875 12.2906C3.44327 12.0778 3.30377 11.8936 3.11941 11.7632C2.93505 11.6328 2.71486 11.5627 2.48906 11.5625H1.09375C1.05231 11.5625 1.01257 11.546 0.983265 11.5167C0.953962 11.4874 0.9375 11.4477 0.9375 11.4062V8.59375C0.9375 8.55231 0.953962 8.51257 0.983265 8.48326C1.01257 8.45396 1.05231 8.4375 1.09375 8.4375H2.48906C2.71569 8.43725 2.93665 8.3666 3.12139 8.23532C3.30613 8.10404 3.44552 7.91862 3.52031 7.70469C3.60026 7.47815 3.69205 7.25597 3.79531 7.03906C3.89432 6.8346 3.9272 6.60439 3.8894 6.38039C3.8516 6.15638 3.74499 5.94971 3.58438 5.78906L2.59844 4.80312C2.56934 4.77385 2.553 4.73425 2.553 4.69297C2.553 4.65169 2.56934 4.61209 2.59844 4.58281L4.58594 2.59688C4.61521 2.56777 4.65481 2.55144 4.69609 2.55144C4.73737 2.55144 4.77697 2.56777 4.80625 2.59688L5.79219 3.58281C5.95284 3.74343 6.15951 3.85004 6.38351 3.88784C6.60751 3.92564 6.83773 3.89275 7.04219 3.79375C7.2596 3.69043 7.48231 3.59864 7.70938 3.51875C7.92218 3.44327 8.10642 3.30377 8.23678 3.11941C8.36715 2.93505 8.43726 2.71486 8.4375 2.48906V1.09375C8.4375 1.05231 8.45396 1.01257 8.48326 0.983265C8.51257 0.953962 8.55231 0.9375 8.59375 0.9375H11.4062C11.4477 0.9375 11.4874 0.953962 11.5167 0.983265C11.546 1.01257 11.5625 1.05231 11.5625 1.09375V2.48906C11.5628 2.71569 11.6334 2.93665 11.7647 3.12139C11.896 3.30613 12.0814 3.44552 12.2953 3.52031C12.5219 3.60026 12.744 3.69205 12.9609 3.79531C13.1654 3.89432 13.3956 3.9272 13.6196 3.8894C13.8436 3.8516 14.0503 3.74499 14.2109 3.58438L15.1969 2.59844C15.2262 2.56934 15.2658 2.553 15.307 2.553C15.3483 2.553 15.3879 2.56934 15.4172 2.59844L17.4063 4.5875C17.4354 4.61678 17.4517 4.65638 17.4517 4.69766C17.4517 4.73894 17.4354 4.77854 17.4063 4.80781L16.4203 5.79375C16.2597 5.9544 16.1531 6.16107 16.1153 6.38507C16.0775 6.60908 16.1104 6.83929 16.2094 7.04375C16.3127 7.26116 16.4045 7.48387 16.4844 7.71094C16.5594 7.92458 16.6989 8.10966 16.8836 8.24065C17.0684 8.37163 17.2892 8.44205 17.5156 8.44219H18.9062C18.9477 8.44219 18.9874 8.45865 19.0167 8.48795C19.046 8.51725 19.0625 8.557 19.0625 8.59844V11.4062Z" fill="black"/>
</svg>
