<svg width="27" height="23" viewBox="0 0 27 23" fill="none" xmlns="http://www.w3.org/2000/svg">
<path d="M24.7098 0.197087C21.1478 1.67213 5.8753 7.99834 1.65537 9.72263C-1.17478 10.8271 0.481869 11.8624 0.481869 11.8624C0.481869 11.8624 2.89764 12.6906 4.96839 13.3119C7.03914 13.9332 8.14357 13.2428 8.14357 13.2428L17.876 6.68529C21.3272 4.33858 20.499 6.2712 19.6708 7.09938C17.876 8.89416 14.908 11.724 12.4232 14.002C11.3188 14.9683 11.871 15.7967 12.3541 16.2108C14.1489 17.7294 19.0495 20.8355 19.3258 21.0427C20.784 22.0749 23.6523 23.561 24.0885 20.4214L25.8143 9.58451C26.3665 5.92617 26.9187 2.5438 26.9878 1.57749C27.1947 -0.769224 24.7098 0.197087 24.7098 0.197087Z" fill="white"/>
</svg>
