<?xml version="1.0" ?><svg viewBox="0 0 32 32" xmlns="http://www.w3.org/2000/svg"><title/><g data-name="Layer 19" id="Layer_19"><path d="M2,11.56H9.56c1.66,0,2.75,1.48,3.75,3.34.34-.67.7-1.38,1.1-2.07C13.28,11,11.82,9.56,9.56,9.56H2a1,1,0,0,0,0,2Z"/><path d="M20.44,11.56h4.67v.67a1,1,0,0,0,1.5.87l2.89-1.67a1,1,0,0,0,0-1.73L26.61,8a1,1,0,0,0-1.5.87v.67H20.44c-3.34,0-4.93,3.18-6.33,6-1.24,2.49-2.42,4.84-4.48,4.89H2a1,1,0,0,0,0,2H9.56c3.34,0,4.93-3.18,6.33-6C17.15,13.93,18.34,11.56,20.44,11.56Z"/><path d="M29.5,20.57,26.61,18.9a1,1,0,0,0-1.5.87v.67H20.38c-1.63,0-2.7-1.5-3.69-3.34-.34.67-.7,1.38-1.1,2.07,1.13,1.81,2.59,3.27,4.85,3.27h4.67v.66a1,1,0,0,0,1.5.87L29.5,22.3a1,1,0,0,0,0-1.73Z"/></g></svg>