<?xml version="1.0" encoding="utf-8"?>
<!-- Generator: Adobe Illustrator 27.8.1, SVG Export Plug-In . SVG Version: 6.00 Build 0)  -->
<svg version="1.1" id="Layer_1" xmlns="http://www.w3.org/2000/svg" xmlns:xlink="http://www.w3.org/1999/xlink" x="0px" y="0px"
	 viewBox="0 0 24 24" style="enable-background:new 0 0 24 24;" xml:space="preserve">
<style type="text/css">
	.st0{fill-rule:evenodd;clip-rule:evenodd;fill:#005CFF;}
	.st1{fill-rule:evenodd;clip-rule:evenodd;fill:#FFFFFF;}
</style>
<path class="st0" d="M4.2,19.8c-0.9-0.9-1.2-2.3-0.9-4.2C1.8,14.5,1,13.3,1,12s0.8-2.5,2.3-3.6C3,6.6,3.3,5.1,4.2,4.2S6.6,3,8.4,3.3
	C9.5,1.8,10.7,1,12,1s2.5,0.8,3.6,2.3c1.8-0.3,3.3,0,4.2,0.9c0.9,0.9,1.2,2.3,0.9,4.2C22.2,9.5,23,10.7,23,12s-0.8,2.5-2.3,3.6
	c0.3,1.8,0,3.3-0.9,4.2c-0.9,0.9-2.3,1.2-4.2,0.9C14.5,22.2,13.3,23,12,23s-2.5-0.8-3.6-2.3C6.6,21,5.1,20.7,4.2,19.8z"/>
<polygon class="st1" points="11,12.6 15.3,8.3 16.7,9.7 11,15.4 7.3,11.7 8.7,10.3 "/>
</svg>
